# xmcd
#
# Track frame offsets: 
#        150
#        52438
#        88281
#        127155
#        171239
#        206682
#        251136
#        279760
#        306177
#
# Disc length: 4440 seconds
#
# Revision: 1
# Processed by: cddbd v1.5.2PL0 Copyright (c) Steve Scherf et al.
# Submitted via: ExactAudioCopy v1.2
#
DISCID=8e115609
DTITLE=Miles Davis I - Connoisseur Jazz Cuts - CD 1 of 20
DYEAR=2012
DGENRE=Jazz
TTITLE0=All Blues
TTITLE1=Bye Bye Blackbird
TTITLE2=Trane's Blues (aka Vierd Blues)
TTITLE3=Freddie Freeloader
TTITLE4=Dear Old Stockholm
TTITLE5=On Green Dolphin Street
TTITLE6=Oleo
TTITLE7=Fran Dance
TTITLE8=Round Midnight
EXTD=YEAR: 2012
EXTT0=
EXTT1=
EXTT2=
EXTT3=
EXTT4=
EXTT5=
EXTT6=
EXTT7=
EXTT8=
PLAYORDER=
